# xmcd
#
# Track frame offsets:
#	150
#	19841
#	36646
#	57135
#	75741
#	94364
#	112364
#	128008
#	145144
#	162514
#	179188
#	193827
#	209544
#	226070
#	244084
#	258243
#	273452
#	289392
#	305834
#	323955
#	339164
#
# Disc length: 4789 seconds
#
# Revision: 0
# Processed by: cddbd v1.5.2PL0 Copyright (c) Steve Scherf et al.
# Submitted via: EasyCDDAExtractor 9.1.0.1
#
DISCID=4d12b315
DTITLE=ΑΝΔΡΕΑΣ ΣΤΑΜΟΣ - BEST OF and 4 ΝΕΑ ΤΡΑΓΟΥΔΙΑ
DYEAR=2007
DGENRE=ΛΑΙΚΑ
TTITLE0=ΑΠΟΤΟΜΑ ΒΡΑΔΙΑΖΕΙ
TTITLE1=ΦΤΑΙΣ
TTITLE2=ΕΛΑ ΠΑΡΗΓΟΡΗΣΕ ΜΕ
TTITLE3=ΔΕΝ ΕΧΩ ΑΛΛΑΞΕΙ
TTITLE4=ΕΙΣΑΙ ΣΤΗ ΖΩΗ ΜΟΥ ΟΥΡΑΝΟΣ
TTITLE5=ΑΠΟΨΕ ΕΙΣΑΙ ΕΔΩ
TTITLE6=ΠΟΣΟ ΘΑ 'ΘΕΛΑ
TTITLE7=ΜΕΙΝΕ ΚΟΝΤΑ ΜΟΥ
TTITLE8=ΔΕΝ ΕΙΣΑΙ ΠΙΑ ΕΔΩ
TTITLE9=ΝΑ ΒΡΩ ΤΗΝ ΑΓΑΠΗ
TTITLE10=ΤΙ ΖΗΤΑΣ
TTITLE11=ΕΙΝΑΙ ΑΠΙΣΤΕΥΤΟ
TTITLE12=ΔΕΝ ΕΙΣΑΙ ΕΔΩ
TTITLE13=ΕΣΕΝΑ ΕΧΩ ΜΟΝΟ (ΟΞΥΓΟΝΟ)
TTITLE14=ΚΑΜΙΑ ΓΥΝΑΙΚΑ
TTITLE15=ΚΑΝΕΝΑ ΠΡΟΒΛΗΜΑ
TTITLE16=ΤΑΞΙΔΕΥΩ
TTITLE17=ΜΙΑ ΝΥΧΤΑ ΜΟΝΟ (ΝΥΧΤΕΣ ΠΑΡΑΞΕΝΕΣ)
TTITLE18=ΘΑ 'ΜΑΣΤΕ ΜΑΖΙ
TTITLE19=ΑΛΛΗ ΜΙΑ ΒΡΑΔΙΑ
TTITLE20=ΠΟΣΟ ΘΑ 'ΘΕΛΑ (SUMMER LOVE MIX)
EXTD=
EXTT0=
EXTT1=
EXTT2=
EXTT3=
EXTT4=
EXTT5=
EXTT6=
EXTT7=
EXTT8=
EXTT9=
EXTT10=
EXTT11=
EXTT12=
EXTT13=
EXTT14=
EXTT15=
EXTT16=
EXTT17=
EXTT18=
EXTT19=
EXTT20=
PLAYORDER=
